<!-- icon sprite sheet -->
<svg  xmlns="http://www.w3.org/2000/svg" style="display:none;">	
	<symbol id="close" viewBox="0 0 50 50">
		  <style>
			.st0{fill:#990000;} .st1{fill:#FFFFFF;} .st2{fill-opacity:0.36;} .st3{opacity:0.53;fill:#FFFFFF;}
		  </style>
		  <circle class="icn--warning" cx="25" cy="25" r="25"/>
		  <path d="M33.4 40l-3.9-6.6c-1.5-2.6-2.5-4.2-3.5-6-.9 1.7-1.7 3.3-3.3 6L19 40h-4.5l9.3-15.2L14.9 10h4.6l4 7c1.1 2 2 3.5 2.8 5.1h.1c.9-1.8 1.6-3.2 2.8-5.1l4.1-7h4.5l-9.2 14.6L38 40h-4.6z"/>
		  <path class="st1" d="M31.9 40L28 33.4c-1.6-2.5-2.6-4.2-3.5-5.9h-.1c-.9 1.7-1.7 3.3-3.3 6L17.5 40H13l9.3-15.2L13.4 10H18l4 7c1.1 2 2 3.5 2.8 5.1h.1c.9-1.8 1.6-3.2 2.8-5.1l4.1-7h4.5L27 24.6 36.5 40h-4.6z"/>
		  <path class="st2" d="M29 .3c8.9 3.8 15 11.9 15 21.2C44 34.5 32.1 45 17.5 45c-3.3 0-6.4-.5-9.3-1.5 4.4 4 10.3 6.5 16.8 6.5 13.8 0 25-11.2 25-25C50 12.6 40.9 2.2 29 .3z"/>
		  <path class="st3" d="M25.4 8.3c2.5-.3 5-.3 7.3 0-3.2-2-7.3-3-11.6-2.5-8.8 1.1-15.1 8-14.2 15.4 0 .4.1.8.2 1.3 0-6.7 7.9-13 18.3-14.2z"/>
	</symbol>
</svg>