<?xml version="1.0" encoding="utf-8"?>
<!-- Generator: Adobe Illustrator 21.1.0, SVG Export Plug-In . SVG Version: 6.00 Build 0)  -->
<svg version="1.1" id="Layer_1" xmlns="http://www.w3.org/2000/svg" xmlns:xlink="http://www.w3.org/1999/xlink" x="0px" y="0px"
	 viewBox="0 0 50 50" style="enable-background:new 0 0 50 50;" xml:space="preserve">
<style type="text/css">
	.st0{fill-opacity:0.36;}
	.st1{opacity:0.53;fill:#FFFFFF;}
	.st2{fill:#FFFFFF;}
</style>
<path class="st0" d="M29,0.3c8.9,3.8,15,11.9,15,21.2C44,34.5,32.1,45,17.5,45c-3.3,0-6.4-0.5-9.3-1.5c4.4,4,10.3,6.5,16.8,6.5
	c13.8,0,25-11.2,25-25C50,12.6,40.9,2.2,29,0.3z"/>
<path class="st1" d="M25.4,8.3c2.5-0.3,5-0.3,7.3,0c-3.2-2-7.3-3-11.6-2.5c-8.8,1.1-15.1,8-14.2,15.4C6.9,21.6,7,22,7.1,22.5
	C7.1,15.8,15,9.5,25.4,8.3z"/>
<g>
	<path d="M33.5,26.6L16.5,40v-3.9l14.4-11.1v-0.1L16.5,13.9V10l17,13.4V26.6z"/>
</g>
<g>
	<path class="st2" d="M33.5,25.6L16.5,39v-3.9l14.4-11.1v-0.1L16.5,12.9V9l17,13.4V25.6z"/>
</g>
</svg>
